<?xml version="1.0" standalone="no"?>
<!DOCTYPE svg PUBLIC "-//W3C//DTD SVG 20010904//EN"
 "http://www.w3.org/TR/2001/REC-SVG-20010904/DTD/svg10.dtd">
<svg version="1.0" xmlns="http://www.w3.org/2000/svg"
 width="1920.000000pt" height="1280.000000pt" viewBox="0 0 1920.000000 1280.000000"
 preserveAspectRatio="xMidYMid meet">
<metadata>
Created by potrace 1.16, written by Peter Selinger 2001-2019
</metadata>
<g transform="translate(0.000000,1280.000000) scale(0.100000,-0.100000)"
fill="#000000" stroke="none">
<path d="M8970 11486 c-179 -24 -531 -92 -630 -122 -67 -20 -125 -74 -135
-126 -5 -24 4 -88 25 -195 51 -255 51 -421 -1 -676 -79 -393 -364 -934 -741
-1409 -175 -221 -296 -353 -519 -573 -236 -232 -367 -345 -400 -345 -41 0 -23
40 118 263 268 426 384 629 495 872 179 387 256 629 320 1000 18 104 22 169
22 325 1 407 -72 533 -267 460 -119 -45 -454 -253 -697 -433 -347 -257 -553
-449 -840 -782 -353 -410 -632 -864 -857 -1395 -91 -214 -139 -361 -212 -655
-80 -322 -119 -568 -141 -895 -6 -80 -14 -176 -20 -215 -14 -103 -12 -306 4
-442 8 -65 17 -176 21 -248 6 -145 57 -466 109 -693 61 -263 145 -517 269
-812 122 -292 171 -364 244 -364 53 0 98 55 153 190 74 183 121 279 254 517
130 235 221 385 309 517 144 213 507 670 657 825 37 39 101 111 143 160 88
105 1142 1157 1237 1235 98 81 243 224 328 325 41 50 137 153 212 230 299 307
646 772 804 1076 175 338 304 750 341 1086 37 334 39 370 26 491 -7 65 -16
169 -22 232 -11 126 -50 356 -74 435 -22 73 -49 112 -96 135 -64 33 -220 35
-439 6z"/>
<path d="M10390 11428 c-19 -7 -45 -29 -58 -48 -22 -32 -24 -42 -18 -115 3
-44 17 -152 32 -240 22 -137 27 -200 31 -445 4 -253 3 -302 -16 -440 -65 -472
-172 -822 -377 -1231 -110 -221 -164 -313 -297 -514 -147 -220 -370 -511 -506
-658 -31 -34 -81 -91 -111 -127 -29 -36 -455 -468 -945 -960 -490 -492 -916
-924 -945 -960 -29 -36 -84 -96 -121 -135 -88 -92 -307 -357 -429 -520 -248
-330 -477 -717 -615 -1040 -115 -268 -246 -721 -247 -855 -1 -65 3 -84 27
-130 56 -107 546 -565 672 -628 62 -31 90 -34 130 -15 55 26 76 84 118 331 91
536 188 817 437 1261 177 316 431 657 707 946 68 72 156 168 194 215 97 117
798 816 927 925 130 110 400 379 500 500 41 50 149 167 240 260 430 443 787
920 1089 1454 127 223 350 744 420 978 60 205 127 634 150 965 9 132 24 178
58 178 59 0 199 -259 287 -530 100 -306 141 -539 140 -800 0 -208 -21 -343
-114 -730 -63 -266 -94 -452 -94 -570 1 -129 35 -196 145 -285 81 -65 88 -92
40 -147 -85 -99 -70 -170 80 -372 108 -146 274 -314 466 -473 172 -142 230
-207 259 -295 46 -140 -44 -291 -288 -480 -171 -132 -229 -193 -276 -287 -32
-64 -37 -86 -40 -156 -3 -68 1 -100 27 -190 70 -245 22 -367 -194 -495 -102
-60 -131 -83 -151 -122 -23 -43 -16 -93 23 -186 59 -140 51 -227 -34 -340 -13
-18 -82 -80 -153 -137 -158 -129 -213 -190 -257 -281 -52 -109 -59 -175 -38
-350 28 -227 8 -355 -75 -484 -71 -111 -216 -209 -360 -244 -171 -41 -244 -40
-445 9 -135 32 -200 57 -400 158 -199 100 -351 162 -525 213 l-125 37 -205 1
c-242 1 -261 -3 -419 -97 -183 -108 -346 -290 -415 -463 -15 -37 -40 -118 -57
-181 -27 -108 -29 -125 -29 -311 1 -249 12 -287 101 -332 75 -39 418 -106 694
-136 72 -7 168 -18 215 -24 126 -15 520 -12 652 4 62 8 166 17 230 21 399 21
883 133 1353 313 519 198 899 411 1293 724 313 248 787 737 997 1028 281 388
474 749 650 1210 77 202 99 274 169 555 81 324 121 585 136 870 5 94 14 216
21 273 9 78 9 126 0 205 -7 56 -16 179 -21 272 -28 538 -145 1044 -370 1600
-95 235 -175 393 -327 647 -185 311 -330 514 -506 712 -51 57 -134 150 -185
208 -50 58 -136 143 -189 189 -53 46 -132 116 -177 155 -119 103 -319 261
-427 336 -157 109 -497 309 -614 361 -60 27 -166 75 -235 107 -251 117 -598
232 -940 310 -157 36 -288 46 -340 28z"/>
</g>
</svg>
